<mxfile host="Electron" modified="2023-12-29T07:56:12.684Z" agent="Mozilla/5.0 (Windows NT 10.0; Win64; x64) AppleWebKit/537.36 (KHTML, like Gecko) draw.io/22.1.15 Chrome/120.0.6099.109 Electron/28.1.0 Safari/537.36" etag="MeJ9jx0InLKHKkwaPNbl" version="22.1.15" type="device">
  <diagram name="Page-1" id="xCV3qbr-aHJIMHQM99jd">
    <mxGraphModel dx="391" dy="268" grid="1" gridSize="10" guides="1" tooltips="1" connect="1" arrows="1" fold="1" page="1" pageScale="1" pageWidth="850" pageHeight="1100" math="0" shadow="0">
      <root>
        <mxCell id="0" />
        <mxCell id="1" parent="0" />
        <mxCell id="cRGoLz7t1oIb9Vsy95VB-7" value="&lt;font style=&quot;font-size: 12px;&quot; face=&quot;Consolas&quot;&gt;false&lt;/font&gt;" style="rounded=0;whiteSpace=wrap;html=1;strokeColor=none;fillColor=#fad9d5;" parent="1" vertex="1">
          <mxGeometry x="295" y="200" width="40" height="20" as="geometry" />
        </mxCell>
        <mxCell id="cRGoLz7t1oIb9Vsy95VB-9" value="&lt;font style=&quot;font-size: 12px;&quot; face=&quot;Consolas&quot;&gt;0&lt;/font&gt;" style="rounded=0;whiteSpace=wrap;html=1;strokeColor=none;fillColor=#b1ddf0;" parent="1" vertex="1">
          <mxGeometry x="270" y="140" width="30" height="20" as="geometry" />
        </mxCell>
        <mxCell id="cRGoLz7t1oIb9Vsy95VB-16" value="&lt;font style=&quot;font-size: 12px;&quot; face=&quot;Consolas&quot;&gt;0&lt;/font&gt;" style="rounded=0;whiteSpace=wrap;html=1;strokeColor=none;fillColor=#B0F9E1;" parent="1" vertex="1">
          <mxGeometry x="330" y="140" width="30" height="20" as="geometry" />
        </mxCell>
        <mxCell id="cRGoLz7t1oIb9Vsy95VB-18" value="&lt;font style=&quot;font-size: 12px;&quot; face=&quot;Consolas&quot;&gt;0&lt;/font&gt;" style="rounded=0;whiteSpace=wrap;html=1;strokeColor=none;fillColor=#fad7ac;" parent="1" vertex="1">
          <mxGeometry x="300" y="140" width="30" height="20" as="geometry" />
        </mxCell>
        <mxCell id="G8gevJCpGkjxZ1kMpfPV-13" value="" style="shape=flexArrow;endArrow=classic;html=1;rounded=0;endWidth=10.952380952380953;endSize=3.761904761904762;width=7.142857142857142;fillColor=#f5f5f5;gradientColor=#b3b3b3;strokeColor=#666666;" parent="1" edge="1">
          <mxGeometry width="50" height="50" relative="1" as="geometry">
            <mxPoint x="370" y="125" as="sourcePoint" />
            <mxPoint x="370" y="195" as="targetPoint" />
          </mxGeometry>
        </mxCell>
        <mxCell id="G8gevJCpGkjxZ1kMpfPV-17" value="&lt;font style=&quot;font-size: 11px;&quot;&gt;转为bool型&lt;/font&gt;" style="edgeLabel;html=1;align=center;verticalAlign=middle;resizable=0;points=[];textOpacity=60;" parent="G8gevJCpGkjxZ1kMpfPV-13" vertex="1" connectable="0">
          <mxGeometry x="0.5408" y="1" relative="1" as="geometry">
            <mxPoint y="-7" as="offset" />
          </mxGeometry>
        </mxCell>
        <mxCell id="G8gevJCpGkjxZ1kMpfPV-18" value="" style="shape=flexArrow;endArrow=classic;html=1;rounded=0;endWidth=10.952380952380953;endSize=3.761904761904762;width=7.142857142857142;fillColor=#f5f5f5;gradientColor=#b3b3b3;strokeColor=#666666;" parent="1" edge="1">
          <mxGeometry width="50" height="50" relative="1" as="geometry">
            <mxPoint x="370" y="205" as="sourcePoint" />
            <mxPoint x="370" y="275" as="targetPoint" />
          </mxGeometry>
        </mxCell>
        <mxCell id="G8gevJCpGkjxZ1kMpfPV-19" value="&lt;font style=&quot;font-size: 11px;&quot;&gt;转为其它型&lt;/font&gt;" style="edgeLabel;html=1;align=center;verticalAlign=middle;resizable=0;points=[];textOpacity=60;labelBorderColor=none;labelBackgroundColor=default;" parent="G8gevJCpGkjxZ1kMpfPV-18" vertex="1" connectable="0">
          <mxGeometry x="0.5408" y="1" relative="1" as="geometry">
            <mxPoint y="-34" as="offset" />
          </mxGeometry>
        </mxCell>
        <mxCell id="G8gevJCpGkjxZ1kMpfPV-20" value="&lt;font style=&quot;font-size: 12px;&quot; face=&quot;Consolas&quot;&gt;0&lt;/font&gt;" style="rounded=0;whiteSpace=wrap;html=1;strokeColor=none;fillColor=#b1ddf0;" parent="1" vertex="1">
          <mxGeometry x="270" y="260" width="30" height="20" as="geometry" />
        </mxCell>
        <mxCell id="G8gevJCpGkjxZ1kMpfPV-22" value="&lt;font style=&quot;font-size: 12px;&quot; face=&quot;Consolas&quot;&gt;0&lt;/font&gt;" style="rounded=0;whiteSpace=wrap;html=1;strokeColor=none;fillColor=#B0F9E1;" parent="1" vertex="1">
          <mxGeometry x="330" y="260" width="30" height="20" as="geometry" />
        </mxCell>
        <mxCell id="G8gevJCpGkjxZ1kMpfPV-23" value="&lt;font style=&quot;font-size: 12px;&quot; face=&quot;Consolas&quot;&gt;0&lt;/font&gt;" style="rounded=0;whiteSpace=wrap;html=1;strokeColor=none;fillColor=#fad7ac;" parent="1" vertex="1">
          <mxGeometry x="300" y="260" width="30" height="20" as="geometry" />
        </mxCell>
        <mxCell id="G8gevJCpGkjxZ1kMpfPV-34" value="&lt;font face=&quot;Consolas&quot;&gt;true&lt;/font&gt;" style="rounded=0;whiteSpace=wrap;html=1;strokeColor=none;fillColor=#fad9d5;" parent="1" vertex="1">
          <mxGeometry x="405" y="200" width="40" height="20" as="geometry" />
        </mxCell>
        <mxCell id="G8gevJCpGkjxZ1kMpfPV-35" value="&lt;font face=&quot;Consolas&quot; style=&quot;font-size: 10px;&quot;&gt;其它&lt;/font&gt;" style="rounded=0;whiteSpace=wrap;html=1;strokeColor=none;fillColor=#b1ddf0;fontSize=10;" parent="1" vertex="1">
          <mxGeometry x="380" y="140" width="30" height="20" as="geometry" />
        </mxCell>
        <mxCell id="G8gevJCpGkjxZ1kMpfPV-37" value="&lt;font face=&quot;Consolas&quot; style=&quot;font-size: 10px;&quot;&gt;其它&lt;/font&gt;" style="rounded=0;whiteSpace=wrap;html=1;strokeColor=none;fillColor=#B0F9E1;fontSize=10;" parent="1" vertex="1">
          <mxGeometry x="440" y="140" width="30" height="20" as="geometry" />
        </mxCell>
        <mxCell id="G8gevJCpGkjxZ1kMpfPV-38" value="&lt;font face=&quot;Consolas&quot; style=&quot;font-size: 10px;&quot;&gt;其它&lt;/font&gt;" style="rounded=0;whiteSpace=wrap;html=1;strokeColor=none;fillColor=#fad7ac;fontSize=10;" parent="1" vertex="1">
          <mxGeometry x="410" y="140" width="30" height="20" as="geometry" />
        </mxCell>
        <mxCell id="G8gevJCpGkjxZ1kMpfPV-42" value="&lt;font style=&quot;font-size: 12px;&quot; face=&quot;Consolas&quot;&gt;1&lt;/font&gt;" style="rounded=0;whiteSpace=wrap;html=1;strokeColor=none;fillColor=#b1ddf0;" parent="1" vertex="1">
          <mxGeometry x="380" y="260" width="30" height="20" as="geometry" />
        </mxCell>
        <mxCell id="G8gevJCpGkjxZ1kMpfPV-44" value="&lt;font face=&quot;Consolas&quot;&gt;1&lt;/font&gt;" style="rounded=0;whiteSpace=wrap;html=1;strokeColor=none;fillColor=#B0F9E1;" parent="1" vertex="1">
          <mxGeometry x="440" y="260" width="30" height="20" as="geometry" />
        </mxCell>
        <mxCell id="G8gevJCpGkjxZ1kMpfPV-45" value="&lt;font style=&quot;font-size: 12px;&quot; face=&quot;Consolas&quot;&gt;1&lt;/font&gt;" style="rounded=0;whiteSpace=wrap;html=1;strokeColor=none;fillColor=#fad7ac;" parent="1" vertex="1">
          <mxGeometry x="410" y="260" width="30" height="20" as="geometry" />
        </mxCell>
        <mxCell id="RnIEuLcW1Bak-ZTbcARZ-17" value="&lt;font face=&quot;consolas&quot; style=&quot;font-size: 9px;&quot;&gt;int&lt;/font&gt;" style="text;html=1;strokeColor=none;fillColor=#80cbf2;align=center;verticalAlign=middle;whiteSpace=wrap;rounded=0;gradientColor=none;" parent="1" vertex="1">
          <mxGeometry x="270" y="120" width="30" height="14" as="geometry" />
        </mxCell>
        <mxCell id="RnIEuLcW1Bak-ZTbcARZ-18" value="&lt;font face=&quot;consolas&quot; style=&quot;font-size: 9px;&quot;&gt;double&lt;/font&gt;" style="text;html=1;strokeColor=none;fillColor=#ffc37b;align=center;verticalAlign=middle;whiteSpace=wrap;rounded=0;gradientColor=none;" parent="1" vertex="1">
          <mxGeometry x="300" y="120" width="30" height="14" as="geometry" />
        </mxCell>
        <mxCell id="RnIEuLcW1Bak-ZTbcARZ-19" value="&lt;font face=&quot;consolas&quot; style=&quot;font-size: 9px;&quot;&gt;char&lt;/font&gt;" style="text;html=1;strokeColor=none;fillColor=#a1fcd0;align=center;verticalAlign=middle;whiteSpace=wrap;rounded=0;gradientColor=none;" parent="1" vertex="1">
          <mxGeometry x="330" y="120" width="30" height="14" as="geometry" />
        </mxCell>
        <mxCell id="RnIEuLcW1Bak-ZTbcARZ-20" value="&lt;font face=&quot;consolas&quot; style=&quot;font-size: 9px;&quot;&gt;bool&lt;/font&gt;" style="text;html=1;strokeColor=none;fillColor=#ffb5a8;align=center;verticalAlign=middle;whiteSpace=wrap;rounded=0;gradientColor=none;" parent="1" vertex="1">
          <mxGeometry x="300" y="180" width="30" height="14" as="geometry" />
        </mxCell>
        <mxCell id="pvXkzGobcPxFJ3c1S89C-1" value="&lt;font face=&quot;consolas&quot; style=&quot;font-size: 9px;&quot;&gt;int&lt;/font&gt;" style="text;html=1;strokeColor=none;fillColor=#80cbf2;align=center;verticalAlign=middle;whiteSpace=wrap;rounded=0;gradientColor=none;" vertex="1" parent="1">
          <mxGeometry x="270" y="240" width="30" height="14" as="geometry" />
        </mxCell>
        <mxCell id="pvXkzGobcPxFJ3c1S89C-2" value="&lt;font face=&quot;consolas&quot; style=&quot;font-size: 9px;&quot;&gt;double&lt;/font&gt;" style="text;html=1;strokeColor=none;fillColor=#ffc37b;align=center;verticalAlign=middle;whiteSpace=wrap;rounded=0;gradientColor=none;" vertex="1" parent="1">
          <mxGeometry x="300" y="240" width="30" height="14" as="geometry" />
        </mxCell>
        <mxCell id="pvXkzGobcPxFJ3c1S89C-3" value="&lt;font face=&quot;consolas&quot; style=&quot;font-size: 9px;&quot;&gt;char&lt;/font&gt;" style="text;html=1;strokeColor=none;fillColor=#a1fcd0;align=center;verticalAlign=middle;whiteSpace=wrap;rounded=0;gradientColor=none;" vertex="1" parent="1">
          <mxGeometry x="330" y="240" width="30" height="14" as="geometry" />
        </mxCell>
        <mxCell id="pvXkzGobcPxFJ3c1S89C-4" value="&lt;font face=&quot;consolas&quot; style=&quot;font-size: 9px;&quot;&gt;int&lt;/font&gt;" style="text;html=1;strokeColor=none;fillColor=#80cbf2;align=center;verticalAlign=middle;whiteSpace=wrap;rounded=0;gradientColor=none;" vertex="1" parent="1">
          <mxGeometry x="380" y="120" width="30" height="14" as="geometry" />
        </mxCell>
        <mxCell id="pvXkzGobcPxFJ3c1S89C-5" value="&lt;font face=&quot;consolas&quot; style=&quot;font-size: 9px;&quot;&gt;double&lt;/font&gt;" style="text;html=1;strokeColor=none;fillColor=#ffc37b;align=center;verticalAlign=middle;whiteSpace=wrap;rounded=0;gradientColor=none;" vertex="1" parent="1">
          <mxGeometry x="410" y="120" width="30" height="14" as="geometry" />
        </mxCell>
        <mxCell id="pvXkzGobcPxFJ3c1S89C-6" value="&lt;font face=&quot;consolas&quot; style=&quot;font-size: 9px;&quot;&gt;char&lt;/font&gt;" style="text;html=1;strokeColor=none;fillColor=#a1fcd0;align=center;verticalAlign=middle;whiteSpace=wrap;rounded=0;gradientColor=none;" vertex="1" parent="1">
          <mxGeometry x="440" y="120" width="30" height="14" as="geometry" />
        </mxCell>
        <mxCell id="pvXkzGobcPxFJ3c1S89C-7" value="&lt;font face=&quot;consolas&quot; style=&quot;font-size: 9px;&quot;&gt;bool&lt;/font&gt;" style="text;html=1;strokeColor=none;fillColor=#ffb5a8;align=center;verticalAlign=middle;whiteSpace=wrap;rounded=0;gradientColor=none;" vertex="1" parent="1">
          <mxGeometry x="410" y="180" width="30" height="14" as="geometry" />
        </mxCell>
        <mxCell id="pvXkzGobcPxFJ3c1S89C-8" value="&lt;font face=&quot;consolas&quot; style=&quot;font-size: 9px;&quot;&gt;int&lt;/font&gt;" style="text;html=1;strokeColor=none;fillColor=#80cbf2;align=center;verticalAlign=middle;whiteSpace=wrap;rounded=0;gradientColor=none;" vertex="1" parent="1">
          <mxGeometry x="380" y="240" width="30" height="14" as="geometry" />
        </mxCell>
        <mxCell id="pvXkzGobcPxFJ3c1S89C-9" value="&lt;font face=&quot;consolas&quot; style=&quot;font-size: 9px;&quot;&gt;double&lt;/font&gt;" style="text;html=1;strokeColor=none;fillColor=#ffc37b;align=center;verticalAlign=middle;whiteSpace=wrap;rounded=0;gradientColor=none;" vertex="1" parent="1">
          <mxGeometry x="410" y="240" width="30" height="14" as="geometry" />
        </mxCell>
        <mxCell id="pvXkzGobcPxFJ3c1S89C-10" value="&lt;font face=&quot;consolas&quot; style=&quot;font-size: 9px;&quot;&gt;char&lt;/font&gt;" style="text;html=1;strokeColor=none;fillColor=#a1fcd0;align=center;verticalAlign=middle;whiteSpace=wrap;rounded=0;gradientColor=none;" vertex="1" parent="1">
          <mxGeometry x="440" y="240" width="30" height="14" as="geometry" />
        </mxCell>
      </root>
    </mxGraphModel>
  </diagram>
</mxfile>
